<svg width="118" height="144" viewBox="0 0 118 144" fill="none" xmlns="http://www.w3.org/2000/svg">
<path d="M4.75741 12.9533L104.757 112.953C107.101 115.296 110.9 115.296 113.243 112.953C115.586 110.61 115.586 106.811 113.243 104.468L13.2427 4.46805C10.8995 2.1249 7.10056 2.1249 4.75741 4.46805C2.41427 6.81119 2.41427 10.6102 4.75741 12.9533Z" fill="white" fill-opacity="0.25"/>
<path d="M9.45543 102.557L108.771 102.759C112.084 102.765 114.765 105.457 114.759 108.771C114.752 112.084 112.06 114.765 108.746 114.758L9.43107 114.557C6.11737 114.55 3.43654 111.858 3.44325 108.545C3.44999 105.231 6.14173 102.55 9.45543 102.557Z" fill="white"/>
<path d="M9.40759 2.59244L108.592 2.59244C111.906 2.59244 114.592 5.27873 114.592 8.59244C114.592 11.9062 111.906 14.5924 108.592 14.5924L9.40759 14.5924C6.09388 14.5924 3.40759 11.9062 3.40759 8.59244C3.40759 5.27873 6.09388 2.59244 9.40759 2.59244Z" fill="white"/>
<path d="M28.0001 59C28.0001 41.8792 41.8792 28 59.0001 28C76.1209 28 90.0001 41.8792 90.0001 59C90.0001 76.1208 76.1209 90 59.0001 90C41.8792 90 28.0001 76.1208 28.0001 59ZM40.0001 59C40.0001 69.4934 48.5067 78 59.0001 78C69.4935 78 78.0001 69.4934 78.0001 59C78.0001 48.5066 69.4935 40 59.0001 40C48.5067 40 40.0001 48.5066 40.0001 59Z" fill="white"/>
<rect x="3" y="122.278" width="112" height="21.7215" rx="8" fill="#1500FF"/>
<path d="M19.4492 133.69V137.594C19.3174 137.789 19.1074 138.009 18.8193 138.253C18.5312 138.492 18.1333 138.702 17.6255 138.883C17.1226 139.059 16.4731 139.146 15.6772 139.146C15.0278 139.146 14.4297 139.034 13.8828 138.81C13.3408 138.58 12.8696 138.248 12.4692 137.813C12.0737 137.374 11.7661 136.842 11.5464 136.217C11.3315 135.587 11.2241 134.874 11.2241 134.078V133.25C11.2241 132.455 11.3169 131.744 11.5024 131.119C11.6929 130.494 11.9712 129.964 12.3374 129.53C12.7036 129.09 13.1528 128.758 13.6851 128.534C14.2173 128.304 14.8276 128.189 15.5161 128.189C16.3315 128.189 17.0127 128.331 17.5596 128.614C18.1113 128.893 18.541 129.278 18.8486 129.771C19.1611 130.265 19.3613 130.826 19.4492 131.456H18.0356C17.9722 131.07 17.8452 130.719 17.6548 130.401C17.4692 130.084 17.2031 129.83 16.8564 129.64C16.5098 129.444 16.063 129.347 15.5161 129.347C15.0229 129.347 14.5957 129.437 14.2344 129.618C13.873 129.798 13.5752 130.057 13.3408 130.394C13.1064 130.731 12.9307 131.139 12.8135 131.617C12.7012 132.096 12.645 132.635 12.645 133.236V134.078C12.645 134.693 12.7158 135.243 12.8574 135.726C13.0039 136.209 13.2114 136.622 13.48 136.964C13.7485 137.301 14.0684 137.557 14.4395 137.733C14.8154 137.909 15.2305 137.997 15.6846 137.997C16.1875 137.997 16.5952 137.955 16.9077 137.872C17.2202 137.784 17.4644 137.682 17.6401 137.564C17.8159 137.442 17.9502 137.328 18.043 137.22V134.833H15.5747V133.69H19.4492ZM30.0034 133.331V134.005C30.0034 134.806 29.9033 135.523 29.7031 136.158C29.5029 136.793 29.2148 137.333 28.8389 137.777C28.4629 138.221 28.0112 138.561 27.4839 138.795C26.9614 139.029 26.3755 139.146 25.7261 139.146C25.0962 139.146 24.5176 139.029 23.9902 138.795C23.4678 138.561 23.0137 138.221 22.6279 137.777C22.2471 137.333 21.9517 136.793 21.7417 136.158C21.5317 135.523 21.4268 134.806 21.4268 134.005V133.331C21.4268 132.53 21.5293 131.815 21.7344 131.185C21.9443 130.55 22.2397 130.011 22.6206 129.566C23.0015 129.117 23.4531 128.775 23.9756 128.541C24.5029 128.307 25.0815 128.189 25.7114 128.189C26.3608 128.189 26.9468 128.307 27.4692 128.541C27.9966 128.775 28.4482 129.117 28.8242 129.566C29.2051 130.011 29.4956 130.55 29.6958 131.185C29.9009 131.815 30.0034 132.53 30.0034 133.331ZM28.6045 134.005V133.316C28.6045 132.682 28.5386 132.12 28.4067 131.632C28.2798 131.144 28.0918 130.733 27.8428 130.401C27.5938 130.069 27.2886 129.818 26.9272 129.647C26.5708 129.476 26.1655 129.391 25.7114 129.391C25.272 129.391 24.874 129.476 24.5176 129.647C24.166 129.818 23.8633 130.069 23.6094 130.401C23.3604 130.733 23.1675 131.144 23.0308 131.632C22.894 132.12 22.8257 132.682 22.8257 133.316V134.005C22.8257 134.645 22.894 135.211 23.0308 135.704C23.1675 136.192 23.3628 136.605 23.6167 136.942C23.8755 137.274 24.1807 137.525 24.5322 137.696C24.8887 137.867 25.2866 137.953 25.7261 137.953C26.1851 137.953 26.5928 137.867 26.9492 137.696C27.3057 137.525 27.606 137.274 27.8501 136.942C28.0991 136.605 28.2871 136.192 28.4141 135.704C28.541 135.211 28.6045 134.645 28.6045 134.005ZM35.4014 137.381L38.5435 128.336H40.0742L36.1265 139H35.0352L35.4014 137.381ZM32.4644 128.336L35.5771 137.381L35.9653 139H34.874L30.9336 128.336H32.4644ZM48.2847 137.85V139H42.6377V137.85H48.2847ZM42.9233 128.336V139H41.5098V128.336H42.9233ZM47.5376 132.921V134.071H42.6377V132.921H47.5376ZM48.2114 128.336V129.493H42.6377V128.336H48.2114ZM50.0352 128.336H53.5654C54.3662 128.336 55.0425 128.458 55.5942 128.702C56.1509 128.946 56.5732 129.308 56.8613 129.786C57.1543 130.26 57.3008 130.843 57.3008 131.537C57.3008 132.025 57.2007 132.472 57.0005 132.877C56.8052 133.277 56.522 133.619 56.1509 133.902C55.7847 134.181 55.3452 134.388 54.8325 134.525L54.437 134.679H51.1191L51.1045 133.529H53.6094C54.1172 133.529 54.5396 133.441 54.8765 133.265C55.2134 133.084 55.4673 132.843 55.6382 132.54C55.8091 132.237 55.8945 131.903 55.8945 131.537C55.8945 131.126 55.814 130.768 55.6528 130.46C55.4917 130.152 55.2378 129.916 54.8911 129.75C54.5493 129.579 54.1074 129.493 53.5654 129.493H51.4487V139H50.0352V128.336ZM56.2681 139L53.6753 134.166L55.1475 134.159L57.7769 138.912V139H56.2681ZM67.4814 128.336V139H66.0605L60.6919 130.775V139H59.2783V128.336H60.6919L66.0825 136.583V128.336H67.4814ZM74.0659 129.281L70.5356 139H69.0928L73.1577 128.336H74.0879L74.0659 129.281ZM77.0249 139L73.4873 129.281L73.4653 128.336H74.3955L78.4751 139H77.0249ZM76.8418 135.052V136.209H70.8506V135.052H76.8418ZM88.1064 128.336V139H86.6855L81.3169 130.775V139H79.9033V128.336H81.3169L86.7075 136.583V128.336H88.1064ZM97.0493 135.609H98.4556C98.3823 136.283 98.1895 136.886 97.877 137.418C97.5645 137.95 97.1226 138.373 96.5513 138.685C95.98 138.993 95.2671 139.146 94.4126 139.146C93.7876 139.146 93.2188 139.029 92.7061 138.795C92.1982 138.561 91.7612 138.229 91.395 137.799C91.0288 137.364 90.7456 136.844 90.5454 136.239C90.3501 135.628 90.2524 134.95 90.2524 134.203V133.141C90.2524 132.394 90.3501 131.717 90.5454 131.112C90.7456 130.501 91.0312 129.979 91.4023 129.544C91.7783 129.11 92.23 128.775 92.7573 128.541C93.2847 128.307 93.8779 128.189 94.5371 128.189C95.3428 128.189 96.0239 128.341 96.5806 128.644C97.1372 128.946 97.5693 129.366 97.877 129.903C98.1895 130.436 98.3823 131.053 98.4556 131.756H97.0493C96.981 131.258 96.854 130.831 96.6685 130.475C96.4829 130.113 96.2192 129.835 95.8774 129.64C95.5356 129.444 95.0889 129.347 94.5371 129.347C94.0635 129.347 93.646 129.437 93.2847 129.618C92.9282 129.798 92.6279 130.055 92.3838 130.387C92.1445 130.719 91.9639 131.117 91.8418 131.581C91.7197 132.044 91.6587 132.56 91.6587 133.126V134.203C91.6587 134.725 91.7124 135.216 91.8198 135.675C91.9321 136.134 92.1006 136.537 92.3252 136.883C92.5498 137.23 92.8354 137.503 93.1821 137.704C93.5288 137.899 93.939 137.997 94.4126 137.997C95.0132 137.997 95.4917 137.901 95.8481 137.711C96.2046 137.521 96.4731 137.247 96.6538 136.891C96.8394 136.534 96.9712 136.107 97.0493 135.609ZM107.157 137.85V139H101.51V137.85H107.157ZM101.795 128.336V139H100.382V128.336H101.795ZM106.41 132.921V134.071H101.51V132.921H106.41ZM107.083 128.336V129.493H101.51V128.336H107.083Z" fill="white"/>
</svg>
